<svg xmlns="http://www.w3.org/2000/svg" viewBox="0 0 289.42 203.19"><defs><style>.cls-1,.cls-12,.cls-3{fill:#abadac;}.cls-1{opacity:0.2;}.cls-10,.cls-14,.cls-16,.cls-2,.cls-4,.cls-8{fill:none;}.cls-14,.cls-2,.cls-8{stroke:#abadac;}.cls-10,.cls-13,.cls-14,.cls-15,.cls-16,.cls-2,.cls-4,.cls-8,.cls-9{stroke-linecap:round;stroke-linejoin:round;}.cls-13,.cls-14,.cls-15,.cls-16,.cls-2,.cls-4{stroke-width:1.5px;}.cls-10,.cls-13,.cls-15,.cls-4,.cls-9{stroke:#2f2f2f;}.cls-5{fill:#ffc20e;}.cls-6{fill:#2f2f2f;}.cls-7,.cls-9{fill:#efefef;}.cls-8{stroke-width:0.75px;}.cls-11,.cls-13{fill:#fff;}.cls-12{opacity:0.17;}.cls-14{opacity:0.4;}.cls-15{fill:#f9f9f9;}.cls-16{stroke:#ffc20e;}</style></defs><title>processing-and-analysis</title><g id="Layer_2" data-name="Layer 2"><g id="artwork"><g id="Processing-and-Analysis"><g id="sandboxes"><polygon class="cls-1" points="212.73 20.48 184.54 20.48 184.48 19.91 184.44 15.93 217.21 15.93 215.86 19.69 212.73 20.48"/><polygon class="cls-1" points="212.73 42.81 184.21 42.81 184.06 41.57 184.06 38.27 217.21 38.27 215.86 42.02 212.73 42.81"/><polygon class="cls-1" points="212.73 64.66 184.21 64.55 184.06 63.87 184.44 60.11 217.21 60.11 215.86 63.87 212.73 64.66"/><path class="cls-2" d="M184.48,19.91h29.74a2.22,2.22,0,0,0,2.22-2.21V3.16A2.22,2.22,0,0,0,214.22,1H145.69a2.21,2.21,0,0,0-2.22,2.21V5.53"/><circle class="cls-3" cx="195.86" cy="12.25" r="1.52"/><circle class="cls-3" cx="190.71" cy="12.25" r="1.52"/><line class="cls-2" x1="188.87" y1="6.57" x2="211.53" y2="6.57"/><rect class="cls-3" x="184.06" y="19.91" width="28.53" height="3.74"/><path class="cls-2" d="M184.48,23.25h29.74a2.22,2.22,0,0,1,2.22,2.21V40a2.22,2.22,0,0,1-2.22,2.22H184.3"/><circle class="cls-3" cx="195.86" cy="34.55" r="1.52"/><circle class="cls-3" cx="190.71" cy="34.55" r="1.52"/><line class="cls-2" x1="188.87" y1="28.87" x2="211.53" y2="28.87"/><rect class="cls-3" x="184.06" y="42.22" width="28.53" height="3.74"/><path class="cls-2" d="M184.06,45.59h30.16a2.22,2.22,0,0,1,2.22,2.21V62.34a2.22,2.22,0,0,1-2.22,2.21h-30"/><circle class="cls-3" cx="195.86" cy="56.89" r="1.52"/><circle class="cls-3" cx="190.71" cy="56.89" r="1.52"/><line class="cls-2" x1="188.87" y1="51.21" x2="211.53" y2="51.21"/><polygon class="cls-1" points="92.97 20.28 65.38 20.28 62.55 19.5 61.21 15.74 93.5 15.74 92.97 19.5 92.97 20.28"/><polygon class="cls-1" points="93.5 42.02 65.38 42.02 62.55 41.24 61.21 37.48 93.5 37.48 93.5 41.24 93.5 42.02"/><polygon class="cls-1" points="93.58 64.46 65.38 64.46 62.55 63.68 61.21 59.92 92.97 59.92 93.5 63.24 93.58 64.46"/><path class="cls-2" d="M93,19.72H63.89a2.21,2.21,0,0,1-2.22-2.21V3A2.21,2.21,0,0,1,63.89.75h68.46A2.21,2.21,0,0,1,134.56,3V5.53"/><line class="cls-2" x1="66.5" y1="10.2" x2="75.34" y2="10.2"/><line class="cls-2" x1="79.19" y1="10.2" x2="88.04" y2="10.2"/><line class="cls-2" x1="66.5" y1="6.37" x2="75.34" y2="6.37"/><line class="cls-2" x1="79.19" y1="6.37" x2="88.04" y2="6.37"/><rect class="cls-3" x="66.5" y="19.72" width="27.01" height="3.74"/><path class="cls-2" d="M93.5,42H63.89a2.21,2.21,0,0,1-2.22-2.21V25.27a2.22,2.22,0,0,1,2.22-2.22H93.5"/><line class="cls-2" x1="66.5" y1="32.5" x2="75.34" y2="32.5"/><line class="cls-2" x1="79.19" y1="32.5" x2="88.04" y2="32.5"/><line class="cls-2" x1="66.5" y1="28.68" x2="75.34" y2="28.68"/><line class="cls-2" x1="79.19" y1="28.68" x2="88.04" y2="28.68"/><rect class="cls-3" x="66.5" y="42.02" width="27.01" height="3.74"/><path class="cls-2" d="M93.25,64.36H63.89a2.21,2.21,0,0,1-2.22-2.21V47.61a2.21,2.21,0,0,1,2.22-2.22H93.5"/><line class="cls-2" x1="66.5" y1="54.84" x2="75.34" y2="54.84"/><line class="cls-2" x1="79.19" y1="54.84" x2="88.04" y2="54.84"/><line class="cls-2" x1="66.5" y1="51.02" x2="75.34" y2="51.02"/><line class="cls-2" x1="79.19" y1="51.02" x2="88.04" y2="51.02"/><rect class="cls-1" x="86.88" y="83.39" width="102.96" height="3.43"/><rect class="cls-1" x="55.32" y="64.12" width="38.26" height="3.43"/><rect class="cls-1" x="183.57" y="64.12" width="38.26" height="3.43"/><polygon class="cls-1" points="179.38 83.39 97.84 83.39 94.54 82.47 92.97 78.07 184.63 78.07 183.05 82.47 179.38 83.39"/><rect class="cls-4" x="93.5" y="8.86" width="90.22" height="22.19" rx="2.59" ry="2.59"/><line class="cls-4" x1="99.15" y1="19.91" x2="109.5" y2="19.91"/><line class="cls-4" x1="113.99" y1="19.91" x2="124.35" y2="19.91"/><line class="cls-4" x1="129.63" y1="19.91" x2="139.98" y2="19.91"/><line class="cls-4" x1="99.15" y1="15.44" x2="109.5" y2="15.44"/><line class="cls-4" x1="113.99" y1="15.44" x2="124.35" y2="15.44"/><line class="cls-4" x1="129.63" y1="15.44" x2="139.98" y2="15.44"/><circle class="cls-5" cx="159.65" cy="22.08" r="1.78"/><circle class="cls-5" cx="153.63" cy="22.08" r="1.78"/><line class="cls-4" x1="145.85" y1="14.57" x2="145.85" y2="30.61"/><line class="cls-4" x1="151.47" y1="15.44" x2="177.98" y2="15.44"/><rect class="cls-6" x="99.15" y="31.05" width="80.08" height="4.38"/><rect class="cls-4" x="93.5" y="34.95" width="90.22" height="22.19" rx="2.59" ry="2.59"/><line class="cls-4" x1="99.15" y1="46" x2="109.5" y2="46"/><line class="cls-4" x1="113.99" y1="46" x2="124.35" y2="46"/><line class="cls-4" x1="129.63" y1="46" x2="139.98" y2="46"/><line class="cls-4" x1="99.15" y1="41.53" x2="109.5" y2="41.53"/><line class="cls-4" x1="113.99" y1="41.53" x2="124.35" y2="41.53"/><line class="cls-4" x1="129.63" y1="41.53" x2="139.98" y2="41.53"/><circle class="cls-5" cx="159.65" cy="48.17" r="1.78"/><circle class="cls-5" cx="153.63" cy="48.17" r="1.78"/><line class="cls-4" x1="145.85" y1="41.53" x2="145.85" y2="56.7"/><line class="cls-4" x1="151.47" y1="41.53" x2="177.98" y2="41.53"/><rect class="cls-6" x="99.15" y="57.14" width="80.08" height="4.38"/><rect class="cls-4" x="93.5" y="61.08" width="90.22" height="22.19" rx="2.59" ry="2.59"/><line class="cls-4" x1="99.15" y1="72.13" x2="109.5" y2="72.13"/><line class="cls-4" x1="113.99" y1="72.13" x2="124.35" y2="72.13"/><line class="cls-4" x1="129.63" y1="72.13" x2="139.98" y2="72.13"/><line class="cls-4" x1="99.15" y1="67.66" x2="109.5" y2="67.66"/><line class="cls-4" x1="113.99" y1="67.66" x2="124.35" y2="67.66"/><line class="cls-4" x1="129.63" y1="67.66" x2="139.98" y2="67.66"/><circle class="cls-5" cx="159.65" cy="74.3" r="1.78"/><circle class="cls-5" cx="153.63" cy="74.3" r="1.78"/><line class="cls-4" x1="145.85" y1="66.83" x2="145.85" y2="82.83"/><line class="cls-4" x1="151.47" y1="67.66" x2="177.98" y2="67.66"/></g><g id="arrow"><path class="cls-4" d="M49.89,47.55A33.68,33.68,0,0,0,33.51,95"/><polyline class="cls-4" points="45.67 45.24 50.98 47.12 49.11 52.44"/></g><g id="arrow-2" data-name="arrow"><path class="cls-4" d="M250.55,88.28a33.69,33.69,0,0,0-22-45.11"/><polyline class="cls-4" points="255.17 86.93 250.08 89.37 247.65 84.28"/></g><g id="data_storage" data-name="data storage"><path class="cls-7" d="M68.53,136.39l-.11-3.65-1.73-1.93-4-.23-.25-4.06s-.78-1.41-1.71-1.57-3.93-.26-3.93-.26l-.21-4-2.69-1.82-2.9,0-.28-4.1-2.63-1.68h-3l-.53-4.61-2.38-1.23H13.33l-11.87.42-1,5.9.33,51.3,1.88,2.27H6.69v2.93l1.23,2.37,1.67.53h2.9v2.91l1.1,2.26,1.81.64h2.9l.08,3,.69,1.88,2.22,1h2.9l0,3.15,1.14,2,4.7.63V141.25l.5-3.6,2.4-1.26Z"/><line class="cls-8" x1="54.08" y1="153.47" x2="62.77" y2="144.77"/><line class="cls-8" x1="40.89" y1="170.29" x2="49.59" y2="161.59"/><line class="cls-8" x1="56.86" y1="156.78" x2="65.99" y2="147.65"/><circle class="cls-9" cx="52.41" cy="158.07" r="4.46"/><line class="cls-10" x1="36.74" y1="177.72" x2="46.67" y2="187.65"/><rect class="cls-4" x="30.24" y="136.39" width="44.34" height="59.89" rx="2.9" ry="2.9"/><path class="cls-4" d="M68.53,136.39v-2.88a2.91,2.91,0,0,0-2.91-2.91H27.09a2.9,2.9,0,0,0-2.9,2.91v54.08a2.9,2.9,0,0,0,2.9,2.91H30"/><path class="cls-4" d="M62.72,130.58V127.7a2.9,2.9,0,0,0-2.9-2.91H21.29a2.91,2.91,0,0,0-2.91,2.91v54.08a2.91,2.91,0,0,0,2.91,2.91h2.9"/><path class="cls-4" d="M56.83,124.69v-2.88a2.9,2.9,0,0,0-2.9-2.9H15.4a2.9,2.9,0,0,0-2.91,2.9V175.9a2.9,2.9,0,0,0,2.91,2.9h2.9"/><path class="cls-4" d="M51,118.88V116a2.9,2.9,0,0,0-2.91-2.9H9.59a2.9,2.9,0,0,0-2.9,2.9v54.09a2.9,2.9,0,0,0,2.9,2.9h2.9"/><path class="cls-4" d="M45.09,113.05v-2.88a2.9,2.9,0,0,0-2.91-2.9H3.65a2.9,2.9,0,0,0-2.9,2.9v54.09a2.9,2.9,0,0,0,2.9,2.9H6.56"/><circle class="cls-4" cx="52.41" cy="158.07" r="16.77"/><circle class="cls-6" cx="69.78" cy="141.29" r="1.87"/><circle class="cls-6" cx="34.79" cy="141.29" r="1.87"/><circle class="cls-6" cx="69.78" cy="191.74" r="1.87"/><circle class="cls-6" cx="34.79" cy="191.74" r="1.87"/><circle class="cls-4" cx="52.41" cy="158.07" r="1.85"/><polyline class="cls-10" points="36.66 177.58 36.66 171.3 42.1 171.3"/><polyline class="cls-10" points="62.71 171.3 68.64 171.3 68.64 187.84 46.82 187.84"/><path class="cls-5" d="M55.47,167.84h0L44.73,184.66a3.72,3.72,0,0,1-5.67.72h0a3.72,3.72,0,0,1,.33-5.71Z"/><circle class="cls-11" cx="41.71" cy="182.54" r="1.11"/></g><g id="analysis_clusters" data-name="analysis clusters"><polyline class="cls-12" points="191.26 155.36 187.9 174.33 193.15 177.03 197.28 181.08 197.5 181.71 209.87 174.34 219.13 168.82 215.78 153.03 196.68 150.68"/><polygon class="cls-12" points="240.29 98.25 239.25 139.41 253.88 136.91 240.29 98.25"/><polygon class="cls-12" points="130.49 114.14 156.56 144.04 165.93 121.81 130.49 114.14"/><polyline class="cls-10" points="254.18 137.28 276.24 118.89 286.93 154.79 239.8 154.92"/><line class="cls-10" x1="157.23" y1="145.33" x2="191.55" y2="149.51"/><polyline class="cls-10" points="191.55 149.51 165.93 121.81 156.56 144.04"/><polyline class="cls-10" points="198.6 117.21 240.3 96.76 239.79 156.52"/><line class="cls-10" x1="198.6" y1="117.21" x2="191.55" y2="149.51"/><polyline class="cls-10" points="254.18 137.28 240.3 96.76 191.35 150.43"/><line class="cls-10" x1="191.55" y1="149.51" x2="239.79" y2="156.52"/><line class="cls-10" x1="191.55" y1="149.51" x2="185.8" y2="188.67"/><circle class="cls-13" cx="136.99" cy="175.42" r="17.53"/><circle class="cls-13" cx="239.79" cy="156.52" r="24.03"/><line class="cls-10" x1="101.84" y1="144.25" x2="130.48" y2="114.14"/><polyline class="cls-10" points="156.55 145.32 130.49 114.14 165.93 121.81"/><line class="cls-10" x1="101.84" y1="144.25" x2="123.22" y2="164.09"/><line class="cls-10" x1="134.78" y1="158.04" x2="130.48" y2="114.14"/><line class="cls-10" x1="156.55" y1="145.32" x2="146.1" y2="160.5"/><line class="cls-10" x1="151.97" y1="184.51" x2="185.8" y2="188.67"/><line class="cls-10" x1="156.55" y1="145.32" x2="185.8" y2="188.67"/><line class="cls-10" x1="185.8" y1="188.67" x2="219.13" y2="168.82"/><line class="cls-2" x1="131.99" y1="168.26" x2="145.32" y2="168.38"/><line class="cls-2" x1="125.54" y1="168.21" x2="128.74" y2="168.23"/><line class="cls-14" x1="125.5" y1="173.18" x2="140.74" y2="173.31"/><line class="cls-2" x1="143.7" y1="173.34" x2="149.72" y2="173.39"/><line class="cls-14" x1="137.55" y1="178.26" x2="149.68" y2="178.36"/><line class="cls-2" x1="125.46" y1="178.16" x2="132.88" y2="178.22"/><line class="cls-2" x1="125.42" y1="183.13" x2="145.19" y2="183.3"/><circle class="cls-15" cx="156.55" cy="145.32" r="9.25"/><circle class="cls-15" cx="185.8" cy="188.67" r="13.77"/><circle class="cls-13" cx="191.35" cy="150.41" r="5.39"/><circle class="cls-5" cx="275.92" cy="119.14" r="2.49"/><circle class="cls-5" cx="286.93" cy="154.73" r="2.49"/><circle class="cls-5" cx="240.3" cy="97.25" r="2.49"/><circle class="cls-5" cx="198.6" cy="117.21" r="2.49"/><circle class="cls-5" cx="165.92" cy="122.26" r="2.49"/><circle class="cls-5" cx="130.48" cy="114.14" r="2.49"/><circle class="cls-5" cx="102.21" cy="144.25" r="2.49"/><path class="cls-5" d="M254.47,154.54a9.64,9.64,0,0,0-6.55-2.24,9.66,9.66,0,0,0-2.35-13.16.26.26,0,0,0-.36.37,6.82,6.82,0,0,1,1.52,5.25,6.89,6.89,0,0,1-13.72-.94,6.8,6.8,0,0,1,1.65-4.41.25.25,0,0,0-.34-.37,9.63,9.63,0,0,0-4.08,8.75,9.43,9.43,0,0,0,1.5,4.37,9.64,9.64,0,0,0-10.06,11.15.26.26,0,0,0,.51,0,6.88,6.88,0,1,1,7.4,7.53.26.26,0,0,0,0,.51A9.67,9.67,0,0,0,238,168.7a9.4,9.4,0,0,0,1.69-2.26,9.62,9.62,0,0,0,10,5.06.26.26,0,0,0,0-.51,6.89,6.89,0,1,1,7.53-7.39.25.25,0,0,0,.5,0A9.65,9.65,0,0,0,254.47,154.54Zm-14.76,5.74a3.52,3.52,0,1,1,3.55-3.49A3.52,3.52,0,0,1,239.71,160.28Z"/><circle class="cls-16" cx="239.78" cy="156.81" r="9.23"/></g></g></g></g></svg>