<svg xmlns="http://www.w3.org/2000/svg" viewBox="0 0 356.57 320.31"><defs><style>.cls-1{isolation:isolate;}.cls-12,.cls-15,.cls-19,.cls-2,.cls-21,.cls-3,.cls-9{fill:none;}.cls-15,.cls-19,.cls-2{stroke:#abadac;}.cls-10,.cls-15,.cls-16,.cls-17,.cls-19,.cls-2,.cls-20,.cls-21,.cls-22,.cls-23,.cls-3,.cls-7,.cls-9{stroke-linecap:round;stroke-linejoin:round;}.cls-2{opacity:0.52;}.cls-10,.cls-12,.cls-16,.cls-17,.cls-20,.cls-22,.cls-23,.cls-3,.cls-7,.cls-9{stroke:#2f2f2f;}.cls-12,.cls-16,.cls-17,.cls-21,.cls-23,.cls-3,.cls-7{stroke-width:1.5px;}.cls-17,.cls-4{fill:#ffc20e;}.cls-18,.cls-5{fill:#e2af24;}.cls-16,.cls-6{fill:#2f2f2f;}.cls-11,.cls-22,.cls-7{fill:#efefef;}.cls-13,.cls-14,.cls-8{fill:#abadac;}.cls-8{opacity:0.2;}.cls-10{fill:#fff;}.cls-12{stroke-miterlimit:10;}.cls-14{opacity:0.25;}.cls-14,.cls-18{mix-blend-mode:multiply;}.cls-15{stroke-width:0.75px;}.cls-18{opacity:0.35;}.cls-20{fill:#dddede;}.cls-21{stroke:#ffc20e;}.cls-23{fill:#f9f9f9;}</style></defs><title>global-data-collection</title><g class="cls-1"><g id="Layer_2" data-name="Layer 2"><g id="artwork"><g id="Global-Data-Collection"><g id="global-scan"><path class="cls-2" d="M208.67,136.46l6.14-8.22a67.53,67.53,0,0,0,5.39-4.77c.46-.65,2.49-5.86,3.68-9a1.34,1.34,0,0,0-1.52-1.8L215.7,114l-4.14-5.49-7.47-7.73-3.23-11.6,1.85-.1,11.59,14.34,3.45,6.18,10.09-4.22,6.31-5.51-4.84-6.34-5.4,0-3-8.23,5.3,4.37,11.13,3.22,4.38-.53"/><polyline class="cls-2" points="140.41 122.55 145.23 123.09 160.78 120.58 168 124.67 166.88 131.12 171.64 138.68 173.48 146.07 173.67 155.66 177.78 178.3 180.92 184.95"/><path class="cls-2" d="M211.72,34.44a34.93,34.93,0,0,0-6-1.11c-1.5.07-13.89-8.18-13.89-8.18L177.46,27l-8.7,8.48-4.6,3.63L163,44.84l6.47.79,8.62-.92,1.14-5.87,6.64-4.74,3.61,2.61,5.59,4-8,3.3-5.36,6.26-6.93.93-8.15-.73-16.3,10,1.43,4.26H144l.6,9.73,9.43-.73s3.6-7.47,4.46-7.57c2.42-.27,9-.8,9-.8L173.82,73l-1.64,1.91,2.52,1.43,4.23-4.12-5.68-8.33,8.51,5.32,3.84,7.34,2.63-2.38.29-3.55,6,6.16h4.73l3.43.83-1.94,6.55-16.05-2.6-4.37,3.51-10.24-4.37-3.9-5.05-14.66,2.74-6.32.81-3.44,3.59-1.57,4.49-8.93,11.59"/><polygon class="cls-2" points="147.09 44.17 147.72 49.48 150.5 51.44 147.64 54.28 147.41 56.73 155.28 54.56 151.37 47.64 151.25 44.63 147.09 44.17"/><polygon class="cls-2" points="140.82 51.9 141.18 54.7 145.74 52.89 144.84 49.1 140.82 51.9"/><path class="cls-2" d="M129.52,6.09s-3.47,2.28-3.05,3.4,3.76-.68,6.37,0a16,16,0,0,0,5.49.29s-8.4,3.56-9.34,3.47-1.37,5-1.32,5.48a34.43,34.43,0,0,0,0,4.51c.25,1-5.07,3-5.07,3l-5.21,3.87s-5.57-6-6.23-5.8-6-4.9-6-4.9-3.82,3.83-6.58,2.88a67.7,67.7,0,0,1-7.54-3.56"/><path class="cls-3" d="M140.41,127.38a19.32,19.32,0,0,1-19.32-19.32"/><path class="cls-3" d="M59.11,45.63c.66-.86,1.33-1.7,2-2.54q2.71-3.3,5.69-6.38l1.07-1"/><path class="cls-3" d="M173.57,205.1A102.58,102.58,0,0,1,41.11,82.4"/><path class="cls-3" d="M75.49,28.74A102,102,0,0,1,140.41,5.52a103.32,103.32,0,0,1,10.46.53c3.23.33,6.42.8,9.55,1.43A102.58,102.58,0,0,1,239.61,134"/><path class="cls-3" d="M76,72.42c.33-.58.66-1.17,1-1.75A74.15,74.15,0,0,1,87.28,57.14l1.16-1"/><path class="cls-3" d="M140.41,181.68A73.66,73.66,0,0,1,70.77,84.14"/><path class="cls-3" d="M124.22,36.23a73.83,73.83,0,0,1,16.19-1.79"/><path class="cls-3" d="M96.79,48.78a73.73,73.73,0,0,1,19.28-10.21"/><path class="cls-3" d="M140.41,152.75A44.71,44.71,0,0,1,98.55,92.36"/><path class="cls-3" d="M102.64,84.14a45.38,45.38,0,0,1,5.06-6.55l1.1-1"/><line class="cls-3" x1="140.41" y1="108.06" x2="140.41" y2="209.81"/><line class="cls-3" x1="139.91" y1="108.06" x2="37.86" y2="108.06"/><line class="cls-3" x1="140.27" y1="107.84" x2="56.92" y2="24.48"/><path class="cls-3" d="M91.87,73.68a59.2,59.2,0,0,1,40.44-24.55"/><path class="cls-3" d="M159.26,164a59.27,59.27,0,0,1-72.62-81.3"/><path class="cls-3" d="M53.69,89.83a90.05,90.05,0,0,1,3.16-11.37"/><path class="cls-3" d="M147.69,195.94c-2.44.21-4.92.31-7.42.31a88.41,88.41,0,0,1-88.41-88.41,90.3,90.3,0,0,1,.67-11"/><path class="cls-3" d="M166.56,192.27A86.16,86.16,0,0,1,154.92,195"/><path class="cls-3" d="M86.52,37.63a88,88,0,0,1,53.75-18.21"/><path class="cls-3" d="M62.43,65.87A88.92,88.92,0,0,1,77.75,45.32"/><path class="cls-3" d="M140.41,140.53a32.5,32.5,0,0,1-30-45,32.12,32.12,0,0,1,3.79-6.68,32.84,32.84,0,0,1,9.93-8.9"/><circle class="cls-4" cx="67.89" cy="56.73" r="4.92"/><circle class="cls-4" cx="67.89" cy="96.86" r="4.92"/><circle class="cls-5" cx="85.82" cy="84.14" r="4"/><circle class="cls-5" cx="41.56" cy="135.1" r="4"/><circle class="cls-4" cx="110.54" cy="96.86" r="4.92"/><circle class="cls-4" cx="37.86" cy="108.06" r="4.88"/><circle class="cls-6" cx="69.3" cy="181.96" r="4.8"/><circle class="cls-6" cx="84.2" cy="155.7" r="4.8"/><circle class="cls-6" cx="118.6" cy="163.17" r="3.9"/><circle class="cls-6" cx="107.94" cy="205.1" r="3.9"/><circle class="cls-6" cx="123.85" cy="194.75" r="2.76"/><circle class="cls-6" cx="90.46" cy="180.82" r="3.9"/><circle class="cls-6" cx="107.94" cy="138.87" r="4.8"/><circle class="cls-4" cx="84.2" cy="127.38" r="4.23"/><circle class="cls-4" cx="124.17" cy="118.64" r="4.5"/><circle class="cls-4" cx="62.23" cy="148.1" r="4.51"/><path class="cls-7" d="M27.47,70.23,40.82,50a1.55,1.55,0,0,1,2.59,0L56.76,70.23a1.55,1.55,0,0,1-1.3,2.4H28.76A1.55,1.55,0,0,1,27.47,70.23Z"/><line class="cls-3" x1="42.11" y1="56.24" x2="42.11" y2="64.01"/><line class="cls-3" x1="42.11" y1="68.6" x2="42.11" y2="67.71"/></g><polyline class="cls-3" points="121.11 299.04 116.89 303.27 112.66 299.04"/><polyline class="cls-3" points="121.03 286.59 124.48 290.04 127.93 286.59"/><g id="honeypots"><rect class="cls-8" x="238.58" y="211.38" width="39.08" height="2.95"/><path class="cls-9" d="M321.9,100.2a5,5,0,0,1-5,5h-7a4.29,4.29,0,0,0-4.3,4.3v27.25"/><path class="cls-9" d="M305.83,54.51V68a4.31,4.31,0,0,0,4.3,4.31h6.77a5,5,0,0,1,5,5v1.33"/><circle class="cls-3" cx="305.83" cy="37.53" r="16.98"/><path class="cls-9" d="M284,75.81V88.6a4.82,4.82,0,0,0,4.82,4.82h1.73a4.82,4.82,0,0,1,4.82,4.82V137"/><path class="cls-9" d="M263,105.84v2a6.4,6.4,0,0,0,6.41,6.4h9.35a6.41,6.41,0,0,1,6.4,6.41V137"/><circle class="cls-10" cx="295.34" cy="107.78" r="3.52"/><circle class="cls-10" cx="306.1" cy="10.61" r="3.52"/><polyline class="cls-9" points="308.77 134.05 305.64 137.19 302.5 134.05"/><polyline class="cls-9" points="298.46 134.05 295.32 137.19 292.18 134.05"/><polyline class="cls-9" points="288.31 134.05 285.17 137.19 282.03 134.05"/><path class="cls-4" d="M315.83,36.17a6.53,6.53,0,0,0-3.42-1.43,6.3,6.3,0,0,0-.56-1,6.48,6.48,0,0,0,.57-2.64,6.57,6.57,0,0,0-2.75-5.35.17.17,0,0,0-.24.24,4.7,4.7,0,0,1,1.06,3.58,4.62,4.62,0,0,1-.78,2.05,7.16,7.16,0,0,0-7.77,0,4.71,4.71,0,0,1,.29-5.64.17.17,0,0,0-.23-.25,6.57,6.57,0,0,0-2.73,6,6.11,6.11,0,0,0,.54,2,7.88,7.88,0,0,0-.56,1,6.52,6.52,0,0,0-5.72,7.6.17.17,0,0,0,.34,0,4.68,4.68,0,0,1,4.77-4.27A7.23,7.23,0,0,0,303,44.29a4.63,4.63,0,0,1-4,3.12.18.18,0,0,0,0,.35,6.6,6.6,0,0,0,5.74-1.84,6.39,6.39,0,0,0,.83-1.05h.62a6.39,6.39,0,0,0,.83,1.05,6.58,6.58,0,0,0,5.73,1.84.18.18,0,0,0,0-.35,4.71,4.71,0,0,1-3.28-1.77,4.44,4.44,0,0,1-.73-1.35A7.23,7.23,0,0,0,313,38.06a4.68,4.68,0,0,1,4.77,4.27.17.17,0,0,0,.34,0A6.56,6.56,0,0,0,315.83,36.17Zm-4.44-1.47h-.06l0-.06Zm-2.25-2.39a4.68,4.68,0,0,1-6.62,0,6.24,6.24,0,0,1,6.62,0ZM305.83,40a2.36,2.36,0,1,1,2.36-2.36A2.36,2.36,0,0,1,305.83,40Zm-5.49-5.33h-.08l0-.07A.25.25,0,0,0,300.34,34.7Zm-.8,3.47a4.64,4.64,0,0,1,3.64,5.23A6.34,6.34,0,0,1,299.54,38.17Zm8.94,5.23a4.64,4.64,0,0,1,3.64-5.23A6.36,6.36,0,0,1,308.48,43.4Z"/><circle class="cls-3" cx="263.01" cy="90.97" r="14.68"/><path class="cls-4" d="M271.66,89.8a5.56,5.56,0,0,0-3-1.24,6.78,6.78,0,0,0-.48-.88,5.65,5.65,0,0,0-1.89-6.91.15.15,0,0,0-.21.21,4,4,0,0,1,.92,3.09,4,4,0,0,1-.67,1.78,6.2,6.2,0,0,0-6.72,0A4,4,0,0,1,259.9,81a.15.15,0,0,0-.2-.22,5.69,5.69,0,0,0-2.36,5.18,5.11,5.11,0,0,0,.47,1.73,5.92,5.92,0,0,0-.49.89,5.53,5.53,0,0,0-2.95,1.24,5.67,5.67,0,0,0-2,5.33.15.15,0,0,0,.29,0,4,4,0,0,1,4.12-3.69,6.26,6.26,0,0,0,3.75,5.39,3.86,3.86,0,0,1-.63,1.16,4.09,4.09,0,0,1-2.84,1.54c-.17,0-.17.27,0,.3a5.56,5.56,0,0,0,5.67-2.5h.54a5.65,5.65,0,0,0,.72.91,5.71,5.71,0,0,0,5,1.59.15.15,0,0,0,0-.3A4.07,4.07,0,0,1,266.12,98a4.12,4.12,0,0,1-.64-1.16,6.24,6.24,0,0,0,3.75-5.39,4,4,0,0,1,4.12,3.69.15.15,0,0,0,.3,0A5.67,5.67,0,0,0,271.66,89.8Zm-3.84-1.28h-.05l0,0Zm-1.94-2.06a4.12,4.12,0,0,1-2.4,1.16,4.08,4.08,0,0,1-3.33-1.16,5.37,5.37,0,0,1,2.86-.82A5.43,5.43,0,0,1,265.88,86.46ZM263,93.14a2,2,0,1,1,2-2A2,2,0,0,1,263,93.14Zm-4.75-4.62h-.06l0,0Zm-.68,3A4,4,0,0,1,260.72,96,5.45,5.45,0,0,1,257.58,91.52ZM265.3,96a4,4,0,0,1,3.15-4.52A5.46,5.46,0,0,1,265.3,96Z"/><circle class="cls-3" cx="283.65" cy="66.45" r="9.11"/><line class="cls-9" x1="305.83" y1="20.54" x2="305.83" y2="14.34"/><line class="cls-9" x1="262.61" y1="76.29" x2="262.61" y2="48.83"/><rect class="cls-11" x="241.47" y="228.03" width="33.29" height="11.4"/><rect class="cls-12" x="241.47" y="228.03" width="33.29" height="11.4"/><rect class="cls-8" x="317.36" y="152.22" width="4.09" height="68.62"/><rect class="cls-12" x="223.24" y="122.64" width="69.74" height="127.79" rx="0.67" ry="0.67" transform="translate(444.65 -71.58) rotate(90)"/><line class="cls-9" x1="254.07" y1="224.71" x2="262.16" y2="224.71"/><line class="cls-3" x1="234.19" y1="239.42" x2="282.04" y2="239.42"/><circle class="cls-13" cx="194.61" cy="224.75" r="0.88"/><circle class="cls-13" cx="197.74" cy="224.75" r="0.88"/><circle class="cls-13" cx="200.88" cy="224.75" r="0.88"/><path class="cls-12" d="M325.53,145.05H190.7a3.09,3.09,0,0,0-3.1,3.09v76.79a3.1,3.1,0,0,0,3.1,3.1H325.53a3.1,3.1,0,0,0,3.1-3.1V148.14A3.09,3.09,0,0,0,325.53,145.05Z"/><rect class="cls-14" x="242.03" y="228.58" width="32.17" height="4.03"/><line class="cls-15" x1="190.88" y1="161.17" x2="190.88" y2="180.2"/><line class="cls-15" x1="190.88" y1="184.5" x2="190.88" y2="196.4"/><path class="cls-15" d="M325.44,212.33v10.9a1.56,1.56,0,0,1-1.56,1.56H284.74"/><line class="cls-15" x1="325.44" y1="200.56" x2="325.44" y2="208.12"/><line class="cls-9" x1="258.12" y1="148.59" x2="261.16" y2="148.59"/><circle class="cls-6" cx="255.83" cy="148.59" r="0.76"/><line class="cls-15" x1="325.44" y1="196.47" x2="325.44" y2="192.71"/><path class="cls-4" d="M241.65,169.84s-.61,1.7-.61,1.9.31,1.92.31,1.92,2.87.61,3.07.61l5.36,0,.83,1.36,0,6.17,1,1.41s1.25.17,1.38,0,1.07-.53,1-.95-.13-5.53,0-5.8a13,13,0,0,1,1.21-1.35h1.34l.91,1.73v2.4l.09,6.83.59,1.19h1.86s.94-.65.91-1.07,0-5.69,0-5.86.56-2.21.56-2.21l1.63-.4,1.05.84v1.77l.22,2.74,1.06,1.73s1.15.25,1.35,0a6.17,6.17,0,0,0,1-1.43c0-.3-.05-6.45,0-6.59s.4-2.47.4-2.47l1.66-.31h3.59l1,0-.27-4.45-7.12,0Z"/><path class="cls-3" d="M247.66,165h20.91a4.5,4.5,0,0,1,4.5,4.5v0a0,0,0,0,1,0,0h-29.9a0,0,0,0,1,0,0v0A4.5,4.5,0,0,1,247.66,165Z"/><polygon class="cls-16" points="253.5 161.28 262.73 161.28 261.22 165.04 255.01 165.04 253.5 161.28"/><rect class="cls-7" x="246.2" y="208.35" width="23.84" height="3.03"/><line class="cls-15" x1="255.58" y1="204.03" x2="247.92" y2="204.03"/><line class="cls-15" x1="258.67" y1="204.03" x2="262.77" y2="204.03"/><rect class="cls-17" x="257.78" y="190.29" width="3.42" height="5.05" rx="1.38" ry="1.38"/><rect class="cls-18" x="259.48" y="190.67" width="1.24" height="4.33"/><rect class="cls-3" x="257.78" y="190.29" width="3.42" height="5.05" rx="1.38" ry="1.38"/><rect class="cls-14" x="262.16" y="208.9" width="7.36" height="1.94"/><rect class="cls-3" x="246.2" y="208.35" width="23.84" height="3.03"/><path class="cls-18" d="M274.24,169.53l-8.14,0v.59h2.14v1.46a.62.62,0,0,1-.61.61h0a1.48,1.48,0,0,0-1.49,1.5l.12,11.08c.2-.25,1.57-1.13,1.6-1.43s-.05-6.45,0-6.59.4-2.47.4-2.47l1.66-.31h3.59l1,0Z"/><path class="cls-18" d="M260.63,177.55h1.1l-1,1.46v8.24h-1.24V178.7A1.15,1.15,0,0,1,260.63,177.55Z"/><path class="cls-18" d="M253.71,174.86h1.1l-1,1.46v6.5h-1.24V176A1.15,1.15,0,0,1,253.71,174.86Z"/><path class="cls-3" d="M272.68,174.24h-2.93A1.72,1.72,0,0,0,268,176l0,7.1h0a1.74,1.74,0,0,1-1.73,1.73h0a1.73,1.73,0,0,1-1.73-1.73v-3.69a1.72,1.72,0,0,0-1.73-1.73h0a1.73,1.73,0,0,0-1.73,1.73v6.15a1.73,1.73,0,0,1-1.73,1.73h0a1.73,1.73,0,0,1-1.72-1.73v-8.69a1.74,1.74,0,0,0-1.73-1.73h0a1.73,1.73,0,0,0-1.73,1.73h0v4.64h0a1.74,1.74,0,0,1-1.73,1.73h0a1.73,1.73,0,0,1-1.73-1.73l0-5.47a1.74,1.74,0,0,0-1.73-1.73h0l-5.15,0"/><path class="cls-3" d="M272.44,174.25h.89a1.49,1.49,0,0,0,1.48-1.49V171a1.49,1.49,0,0,0-1.48-1.49h-30.7a1.49,1.49,0,0,0-1.49,1.49v1.72a1.49,1.49,0,0,0,1.49,1.49h1.16a11.55,11.55,0,0,0-4.55,10.26l2.94,18.66a6,6,0,0,0,5.93,5.18h20a6,6,0,0,0,5.93-5.18L277,184.51A11.55,11.55,0,0,0,272.44,174.25Z"/><line class="cls-19" x1="206.42" y1="189.45" x2="228.98" y2="166.89"/><line class="cls-19" x1="215.31" y1="185.62" x2="222.2" y2="178.73"/><line class="cls-15" x1="291.08" y1="148.48" x2="306.53" y2="148.48"/><rect class="cls-18" x="243.19" y="171.01" width="5.06" height="1.4" rx="0.7" ry="0.7"/><rect class="cls-8" x="209.1" y="240.1" width="99.27" height="3.5"/><circle class="cls-20" cx="262.61" cy="47.81" r="3.14"/><circle class="cls-3" cx="321.61" cy="89.04" r="10.43"/><path class="cls-4" d="M327.76,88.21a3.92,3.92,0,0,0-2.1-.88,4.77,4.77,0,0,0-.34-.63,4,4,0,0,0,.35-1.62,4,4,0,0,0-1.7-3.29.1.1,0,0,0-.14.15A2.86,2.86,0,0,1,324,85.4a4.43,4.43,0,0,0-2.39-.7,4.32,4.32,0,0,0-2.38.71,2.86,2.86,0,0,1,.18-3.47c.08-.09-.05-.22-.15-.15a4,4,0,0,0-1.68,3.68,3.69,3.69,0,0,0,.34,1.23,3.88,3.88,0,0,0-.35.63,3.92,3.92,0,0,0-2.1.88A4,4,0,0,0,314.06,92a.11.11,0,0,0,.21,0,2.79,2.79,0,0,1,.83-1.78,2.85,2.85,0,0,1,2.1-.84,4.43,4.43,0,0,0,2.66,3.83,2.93,2.93,0,0,1-.45.83,2.89,2.89,0,0,1-2,1.09.11.11,0,0,0,0,.21,4.05,4.05,0,0,0,3.52-1.13,3.47,3.47,0,0,0,.51-.65h.39a3.47,3.47,0,0,0,.51.65,4.05,4.05,0,0,0,3.52,1.13.11.11,0,0,0,0-.21,2.89,2.89,0,0,1-2-1.09,2.93,2.93,0,0,1-.45-.83A4.43,4.43,0,0,0,326,89.37a2.85,2.85,0,0,1,2.1.84A2.79,2.79,0,0,1,329,92a.11.11,0,0,0,.21,0A4,4,0,0,0,327.76,88.21ZM325,87.3h0s0,0,0,0Zm-1.38-1.46a2.9,2.9,0,0,1-1.7.82,2.86,2.86,0,0,1-2.37-.83,3.91,3.91,0,0,1,2-.58A3.83,3.83,0,0,1,323.65,85.84Zm-2,4.74a1.45,1.45,0,1,1,1.46-1.45A1.45,1.45,0,0,1,321.61,90.58Zm-3.37-3.28s0,0-.05,0l0,0S318.23,87.29,318.24,87.3Zm-.49,2.14a2.84,2.84,0,0,1,1.65,1,2.88,2.88,0,0,1,.59,2.2A3.89,3.89,0,0,1,317.75,89.44Zm5.49,3.21a2.88,2.88,0,0,1,.59-2.2,2.84,2.84,0,0,1,1.65-1A3.89,3.89,0,0,1,323.24,92.65Z"/><path class="cls-4" d="M278.83,17.93a11.24,11.24,0,0,0-7.66-2.54A11.25,11.25,0,0,0,268.3.07c-.28-.2-.64.16-.42.42a8,8,0,1,1-12.3,0,.3.3,0,0,0-.4-.43,11.22,11.22,0,0,0-4.67,10.25,11,11,0,0,0,1.8,5.08,11.23,11.23,0,0,0-11.62,13.09.3.3,0,0,0,.59,0,8,8,0,1,1,8.7,8.7.3.3,0,0,0,0,.59,11.22,11.22,0,0,0,9.8-3.14,11,11,0,0,0,2-2.65,11,11,0,0,0,2,2.65,11.23,11.23,0,0,0,9.8,3.14.3.3,0,0,0,0-.59,8,8,0,0,1-5.61-3,8,8,0,0,1,12-10.63,7.93,7.93,0,0,1,2.31,5,.3.3,0,0,0,.59,0A11.26,11.26,0,0,0,278.83,17.93Zm-17.16,6.84a4.11,4.11,0,1,1,4.11-4.1A4.11,4.11,0,0,1,261.67,24.77Z"/><circle class="cls-21" cx="261.73" cy="20.73" r="10.76"/><path class="cls-4" d="M353.61,56.65a8.14,8.14,0,0,0-5.53-1.84A8.11,8.11,0,0,0,346,43.75a.21.21,0,0,0-.29.31,5.8,5.8,0,1,1-8.89,0,.21.21,0,0,0-.29-.31,8.1,8.1,0,0,0-3.37,7.4,7.9,7.9,0,0,0,1.3,3.66,8.12,8.12,0,0,0-8.39,9.46.22.22,0,0,0,.43,0,5.8,5.8,0,1,1,6.28,6.28.22.22,0,0,0,0,.43,8.12,8.12,0,0,0,7.08-2.27,7.8,7.8,0,0,0,1.41-1.91A8.13,8.13,0,0,0,349.75,71a.22.22,0,0,0,0-.43A5.8,5.8,0,1,1,356,64.25a.22.22,0,0,0,.43,0A8.14,8.14,0,0,0,353.61,56.65Zm-12.39,4.94a3,3,0,1,1,3-3A3,3,0,0,1,341.22,61.59Z"/><circle class="cls-21" cx="341.26" cy="58.67" r="7.77"/></g><g id="sinkhole"><circle class="cls-6" cx="48.39" cy="189.23" r="4.12"/><circle class="cls-6" cx="158.54" cy="267.93" r="2.84"/><circle class="cls-6" cx="30.52" cy="156.57" r="2.84"/><circle class="cls-6" cx="140.68" cy="239.12" r="4.02"/><ellipse class="cls-8" cx="140.59" cy="315.18" rx="36.28" ry="4.3"/><path class="cls-3" d="M123.94,234.38a98.27,98.27,0,0,1,4.35,14.35c2.63,11.4,5,28.47,5,52.74"/><polyline class="cls-3" points="137.56 299.04 133.33 303.27 129.11 299.04"/><path class="cls-3" d="M157.48,234.38c-3.39,8.46-9.4,28.83-9.4,67.09"/><polyline class="cls-3" points="143.86 299.04 148.08 303.27 152.31 299.04"/><polyline class="cls-3" points="152.07 286.59 155.52 290.04 158.97 286.59"/><polyline class="cls-3" points="137.23 286.59 140.68 290.04 144.13 286.59"/><path class="cls-3" d="M172.47,242.44s-16.95,16.39-16.95,47.2"/><line class="cls-3" x1="140.68" y1="226.77" x2="140.68" y2="289.64"/><path class="cls-3" d="M155.49,311.14c-4.27-.22-9-.33-13.86-.33-20,0-36.28,1.95-36.28,4.37s16.24,4.38,36.28,4.38,36.29-2,36.29-4.38c0-1.53-6.52-2.88-16.4-3.66"/><path class="cls-3" d="M12.89,179.41c20.18,31.22,48.24,41.64,69.3,57.45,26.51,19.9,34.55,41.23,34.55,63.49v1.76"/><polyline class="cls-3" points="159.99 299.04 164.21 303.27 168.44 299.04"/><path class="cls-3" d="M192.51,242c-21.43,18.42-28.15,38-28.15,58.35v1.76"/><path class="cls-3" d="M124.48,288.62v-1.06c0-32.57-14.49-46.94-14.49-46.94C88.6,212.3,53,208,36.39,169.82h0"/><circle class="cls-22" cx="81.07" cy="215.93" r="4.12"/><circle class="cls-22" cx="140.68" cy="264.86" r="2.81"/><circle class="cls-22" cx="172.41" cy="242.46" r="3.89"/><circle class="cls-10" cx="104.91" cy="260.73" r="2.91"/><circle class="cls-22" cx="12.39" cy="133.12" r="4.12"/><circle class="cls-20" cx="43.84" cy="210.66" r="5.66"/><circle class="cls-6" cx="17.32" cy="211.81" r="1.81"/><circle class="cls-23" cx="10.76" cy="173.53" r="10.01"/><circle class="cls-6" cx="21.15" cy="110.23" r="1.81"/></g></g></g></g></g></svg>